<mxfile host="app.diagrams.net" modified="2024-01-21T11:54:57.852Z" agent="Mozilla/5.0 (Windows NT 10.0; Win64; x64) AppleWebKit/537.36 (KHTML, like Gecko) Chrome/120.0.0.0 Safari/537.36 Edg/120.0.0.0" version="22.1.21" etag="vlOz1DKMfzSjiQJHgIkT" type="github">
  <diagram name="Page-1" id="lks-Y-3NfBSAcA22f_44">
    <mxGraphModel>
      <root>
        <mxCell id="0" />
        <mxCell id="1" parent="0" />
      </root>
    </mxGraphModel>
  </diagram>
</mxfile>
